<?xml version="1.0" encoding="utf-8"?>
<!-- Generator: Adobe Illustrator 24.1.3, SVG Export Plug-In . SVG Version: 6.00 Build 0)  -->
<svg version="1.1" id="Capa_1" xmlns="http://www.w3.org/2000/svg" xmlns:xlink="http://www.w3.org/1999/xlink" x="0px" y="0px"
	 viewBox="0 0 26 26" style="enable-background:new 0 0 26 26;" xml:space="preserve">
<style type="text/css">
	.st0{fill-rule:evenodd;clip-rule:evenodd;fill:#FFFFFF;}
</style>
<g id="Capa_2_1_">
	<g id="Capa_1-2">
		<path class="st0" d="M26,12.3C25.7,5.3,19.7-0.2,12.6,0.2C6.1,0.5,0.9,5.6,0.5,12.1c0,0.2,0,0.4,0,0.6c0,2.3,0.6,4.6,1.8,6.5L0,26
			l7.1-2.3c6.2,3.4,14,1.1,17.4-5.1c1-1.8,1.6-3.9,1.6-6V12.3z M13.2,23.3c-2.1,0-4.1-0.6-5.9-1.8l-4.1,1.3l1.3-4
			c-1.3-1.8-2-4-2-6.2c0-0.3,0-0.7,0-1C3.2,5.7,8.5,1.5,14.4,2.1c5.1,0.5,9.1,4.6,9.6,9.8c0,0.3,0,0.6,0,0.8
			C24,18.6,19.2,23.3,13.2,23.3L13.2,23.3z"/>
		<path class="st0" d="M19.1,15.2c-0.3-0.1-1.9-0.9-2.1-1s-0.5-0.1-0.7,0.2s-0.8,1-1,1.2s-0.4,0.2-0.7,0.1c-0.9-0.4-1.8-0.9-2.5-1.5
			c-0.7-0.6-1.3-1.3-1.7-2.1c-0.2-0.3,0-0.5,0.1-0.6s0.3-0.4,0.5-0.6l0.1-0.1c0.1-0.1,0.1-0.2,0.2-0.4c0.1-0.2,0.1-0.4,0-0.5
			c-0.1-0.2-0.7-1.7-1-2.3S9.7,6.9,9.5,6.9s-0.4,0-0.6,0c-0.3,0-0.6,0.2-0.8,0.4C7.4,8,7,8.9,7,9.9c0,0.4,0.1,0.7,0.2,1.1
			c0.2,0.8,0.6,1.5,1.1,2.1c0.2,0.2,2.2,3.4,5.3,4.7s3.2,0.8,3.8,0.8c0.9-0.2,1.6-0.7,2.1-1.5c0.2-0.5,0.3-1,0.2-1.5
			C19.6,15.5,19.4,15.4,19.1,15.2z"/>
	</g>
</g>
</svg>
